<svg xmlns="http://www.w3.org/2000/svg" width="1705" height="600" viewBox="0 0 1705 600"><rect width="100%" height="100%" fill="#000000"/><path fill="#FFFFFF" d="M578.15 211.95 568.1 231q-1.8 3.15-3.83 4.57-2.02 1.43-5.02 1.43-3.15 0-6.82-2.33-3.68-2.32-8.78-5.17t-11.93-5.18Q524.9 222 515.6 222q-8.4 0-14.7 2.03-6.3 2.02-10.58 5.62-4.27 3.6-6.37 8.63-2.1 5.02-2.1 11.02 0 7.65 4.28 12.75 4.27 5.1 11.32 8.7t16.05 6.45 18.45 6.08q9.45 3.22 18.45 7.5 9 4.27 16.05 10.79 7.05 6.53 11.32 15.98 4.28 9.45 4.28 22.95 0 14.7-5.03 27.53-5.02 12.82-14.7 22.35-9.67 9.52-23.62 15-13.95 5.47-31.95 5.47-10.35 0-20.4-2.02-10.05-2.03-19.28-5.78-9.22-3.75-17.32-9t-14.4-11.7L447.2 363q1.5-2.1 3.9-3.53 2.4-1.42 5.1-1.42 3.75 0 8.1 3.08 4.35 3.07 10.35 6.82t14.03 6.83q8.02 3.07 19.27 3.07 17.25 0 26.7-8.17 9.45-8.18 9.45-23.48 0-8.55-4.28-13.95-4.27-5.4-11.32-9.07-7.05-3.68-16.05-6.23t-18.3-5.55-18.3-7.2-16.05-10.95-11.33-16.87q-4.27-10.13-4.27-24.98 0-11.85 4.73-23.1 4.72-11.25 13.72-19.95t22.2-13.95 30.3-5.25q19.2 0 35.4 6t27.6 16.8m175.8 11.7h-96.3v60.15h75.9v31.05h-75.9v61.35h96.3v32.25h-136.8v-216.9h136.8zm183-32.1h35.55v216.9h-20.7q-4.8 0-8.03-1.57-3.22-1.58-6.22-5.33L824.3 256.95q.9 9.9.9 18.3v133.2h-35.55v-216.9h21.15q2.55 0 4.42.23 1.88.22 3.3.89 1.43.68 2.78 1.96 1.35 1.27 3 3.37L938 343.2q-.45-5.25-.75-10.35t-.3-9.45zm129.45 135h69L1109 254.4q-1.95-4.8-4.05-11.4t-4.2-14.25q-1.95 7.65-4.05 14.32-2.1 6.68-4.05 11.63zm55.05-135 85.2 216.9h-31.2q-5.25 0-8.55-2.63-3.3-2.62-4.95-6.52l-16.2-44.25h-89.85l-16.2 44.25q-1.2 3.45-4.65 6.3t-8.55 2.85H995l85.35-216.9zm148.2 0v216.9h-40.5v-216.9z"/></svg>