<svg xmlns="http://www.w3.org/2000/svg" width="450" height="200" viewBox="0 0 450 200"><rect width="100%" height="100%" fill="#000000"/><path fill="#FFFFFF" d="m139.035 72.41-3.15 5.97q-.56.99-1.2 1.43-.63.45-1.57.45-.99 0-2.14-.73t-2.75-1.62-3.74-1.62q-2.13-.73-5.05-.73-2.63 0-4.6.63-1.98.64-3.32 1.77-1.34 1.12-1.99 2.7-.66 1.57-.66 3.45 0 2.4 1.34 4t3.55 2.72q2.2 1.13 5.02 2.02 2.82.9 5.79 1.91 2.96 1.01 5.78 2.35t5.03 3.38q2.2 2.05 3.54 5.01t1.34 7.19q0 4.61-1.57 8.62-1.58 4.02-4.61 7.01-3.03 2.98-7.4 4.7-4.37 1.71-10.01 1.71-3.24 0-6.39-.63-3.15-.64-6.04-1.81-2.89-1.18-5.43-2.82-2.54-1.65-4.51-3.67l3.71-6.06q.47-.66 1.22-1.11.75-.44 1.6-.44 1.18 0 2.54.96t3.24 2.14q1.88 1.17 4.4 2.14 2.51.96 6.03.96 5.41 0 8.37-2.56t2.96-7.35q0-2.68-1.34-4.38-1.34-1.69-3.55-2.84-2.2-1.15-5.03-1.95-2.81-.8-5.73-1.74-2.91-.94-5.73-2.25-2.82-1.32-5.03-3.44-2.21-2.11-3.55-5.28-1.34-3.18-1.34-7.83 0-3.71 1.48-7.24 1.48-3.52 4.3-6.25 2.82-2.72 6.96-4.37 4.13-1.64 9.49-1.64 6.02 0 11.09 1.88 5.08 1.88 8.65 5.26m55.08 3.67h-30.17v18.84h23.78v9.73h-23.78v19.22h30.17v10.11h-42.86V66.02h42.86zm57.34-10.06h11.14v67.96h-6.48q-1.51 0-2.52-.49-1.01-.5-1.95-1.67l-35.48-45.31q.28 3.1.28 5.73v41.74h-11.14V66.02h6.63q.8 0 1.38.07.59.07 1.04.28.44.21.87.61.42.4.94 1.06l35.62 45.49q-.14-1.64-.23-3.24-.1-1.6-.1-2.96zm40.57 42.3h21.62l-8.28-22.61q-.61-1.5-1.26-3.57-.66-2.07-1.32-4.47-.61 2.4-1.27 4.49t-1.27 3.65zm17.25-42.3 26.69 67.96h-9.77q-1.65 0-2.68-.82-1.04-.83-1.56-2.05l-5.07-13.86h-28.15l-5.08 13.86q-.38 1.08-1.46 1.98-1.08.89-2.68.89h-9.87l26.75-67.96zm46.43 0v67.96h-12.69V66.02z"/></svg>