<svg xmlns="http://www.w3.org/2000/svg" width="600" height="350" viewBox="0 0 600 350"><rect width="100%" height="100%" fill="#000000"/><path fill="#FFFFFF" d="m185.685 138.31-4.19 7.94q-.75 1.31-1.59 1.91-.84.59-2.09.59-1.32 0-2.85-.97t-3.65-2.15q-2.13-1.19-4.97-2.16-2.85-.97-6.72-.97-3.5 0-6.13.85-2.62.84-4.4 2.34t-2.66 3.59q-.87 2.1-.87 4.6 0 3.18 1.78 5.31 1.78 2.12 4.72 3.62 2.93 1.5 6.68 2.69t7.69 2.53q3.94 1.35 7.69 3.13t6.69 4.5q2.93 2.72 4.72 6.65 1.78 3.94 1.78 9.57 0 6.12-2.1 11.47-2.09 5.34-6.12 9.31t-9.85 6.25q-5.81 2.28-13.31 2.28-4.31 0-8.5-.84-4.19-.85-8.03-2.41t-7.22-3.75q-3.37-2.19-6-4.88l4.94-8.06q.62-.87 1.62-1.47 1-.59 2.13-.59 1.56 0 3.37 1.28 1.82 1.28 4.32 2.84 2.5 1.57 5.84 2.85t8.03 1.28q7.19 0 11.13-3.41 3.93-3.4 3.93-9.78 0-3.56-1.78-5.81t-4.72-3.78q-2.93-1.53-6.68-2.6-3.75-1.06-7.63-2.31-3.87-1.25-7.62-3t-6.69-4.56-4.72-7.03-1.78-10.41q0-4.94 1.97-9.62 1.97-4.69 5.72-8.32 3.75-3.62 9.25-5.81t12.62-2.19q8 0 14.75 2.5t11.5 7m73.25 4.88h-40.12v25.06h31.62v12.94h-31.62v25.56h40.12v13.44h-57v-90.38h57zm76.25-13.38h14.82v90.38h-8.63q-2 0-3.34-.66-1.35-.65-2.6-2.22l-47.19-60.25q.38 4.13.38 7.63v55.5h-14.81v-90.38h8.81q1.06 0 1.84.1.78.09 1.38.37.59.28 1.15.82.57.53 1.25 1.4l47.38 60.5q-.19-2.19-.31-4.31-.13-2.13-.13-3.94zm53.94 56.25h28.75l-11-30.06q-.81-2-1.69-4.75-.87-2.75-1.75-5.94-.81 3.19-1.68 5.97-.88 2.78-1.69 4.85zm22.94-56.25 35.5 90.38h-13q-2.19 0-3.56-1.09-1.38-1.1-2.07-2.72l-6.75-18.44h-37.43l-6.75 18.44q-.5 1.43-1.94 2.62t-3.56 1.19h-13.13l35.56-90.38zm61.75 0v90.38h-16.88v-90.38z"/></svg>